<mxfile host="app.diagrams.net" modified="2023-02-28T04:54:57.889Z" agent="5.0 (Macintosh; Intel Mac OS X 10_15_7) AppleWebKit/537.36 (KHTML, like Gecko) Chrome/110.0.0.0 Safari/537.36 Edg/110.0.1587.50" etag="pkQVF_j_Gg3L7vAmjEoW" version="20.8.23" type="github">
  <diagram name="페이지-1" id="0oyws12vGeRm4AbO0yO5">
    <mxGraphModel dx="1374" dy="843" grid="1" gridSize="10" guides="1" tooltips="1" connect="1" arrows="1" fold="1" page="1" pageScale="1" pageWidth="827" pageHeight="1169" math="0" shadow="0">
      <root>
        <mxCell id="0" />
        <mxCell id="1" parent="0" />
        <mxCell id="dLtlnDuoxPDzDrTVFARZ-29" value="ALB&lt;br&gt;Application Load Balancer&lt;br&gt;public IP를 가지고 있는 곳&lt;br&gt;얘한테 요청하면 어느 target group으로 들어갈지 정해줘야 함" style="rounded=0;whiteSpace=wrap;html=1;align=right;" vertex="1" parent="1">
          <mxGeometry x="930" y="1015" width="650" height="145" as="geometry" />
        </mxCell>
        <mxCell id="dLtlnDuoxPDzDrTVFARZ-24" value="Cluster - 같은 종류의 서비스끼리 묶어놓은거 (예: dev, staging, prod 구분)&lt;br&gt;&lt;br&gt;&lt;br&gt;&lt;br&gt;&lt;br&gt;&lt;br&gt;&lt;br&gt;&lt;br&gt;&lt;br&gt;&lt;br&gt;&lt;br&gt;&lt;br&gt;&lt;br&gt;" style="rounded=0;whiteSpace=wrap;html=1;" vertex="1" parent="1">
          <mxGeometry x="850" y="710" width="540" height="230" as="geometry" />
        </mxCell>
        <mxCell id="dLtlnDuoxPDzDrTVFARZ-1" value="배포는 뭘까?&lt;br&gt;&lt;br&gt;사용자가 특정 도메인을 쳤을 때, 우리 서버에 도달할 수 있도록 하는 것&lt;br&gt;&lt;br&gt;ngrok (내 특정 포트를 url로 잠깐 열어주는 서비스) → dorito.ngrok.io&lt;br&gt;결국, 특정 컴퓨터는 계속 켜져있어서 요청을 지속적으로 받을 수 있고, 연결이 끊기거나 했을 때 심각한 오류가 아니면 웬만하면 지 알아서 복구하고 안정성있게 유지하는 것" style="rounded=0;whiteSpace=wrap;html=1;" vertex="1" parent="1">
          <mxGeometry x="60" y="710" width="350" height="120" as="geometry" />
        </mxCell>
        <mxCell id="dLtlnDuoxPDzDrTVFARZ-2" value="서버 컴퓨터&lt;br&gt;yarn start:prod" style="rounded=0;whiteSpace=wrap;html=1;" vertex="1" parent="1">
          <mxGeometry x="10" y="1030" width="120" height="60" as="geometry" />
        </mxCell>
        <mxCell id="dLtlnDuoxPDzDrTVFARZ-3" value="KT한테 고정IP 요청" style="rounded=0;whiteSpace=wrap;html=1;" vertex="1" parent="1">
          <mxGeometry x="100" y="890" width="120" height="60" as="geometry" />
        </mxCell>
        <mxCell id="dLtlnDuoxPDzDrTVFARZ-4" value="120.124.123.1" style="endArrow=classic;startArrow=classic;html=1;rounded=0;entryX=0.5;entryY=1;entryDx=0;entryDy=0;exitX=0.5;exitY=0;exitDx=0;exitDy=0;" edge="1" parent="1" source="dLtlnDuoxPDzDrTVFARZ-2" target="dLtlnDuoxPDzDrTVFARZ-3">
          <mxGeometry width="50" height="50" relative="1" as="geometry">
            <mxPoint x="90" y="1010" as="sourcePoint" />
            <mxPoint x="140" y="960" as="targetPoint" />
          </mxGeometry>
        </mxCell>
        <mxCell id="dLtlnDuoxPDzDrTVFARZ-5" value="DNS" style="rounded=0;whiteSpace=wrap;html=1;" vertex="1" parent="1">
          <mxGeometry x="310" y="890" width="120" height="60" as="geometry" />
        </mxCell>
        <mxCell id="dLtlnDuoxPDzDrTVFARZ-6" value="" style="curved=1;endArrow=classic;html=1;rounded=0;entryX=0;entryY=0.5;entryDx=0;entryDy=0;" edge="1" parent="1" target="dLtlnDuoxPDzDrTVFARZ-5">
          <mxGeometry width="50" height="50" relative="1" as="geometry">
            <mxPoint x="150" y="990" as="sourcePoint" />
            <mxPoint x="200" y="940" as="targetPoint" />
            <Array as="points">
              <mxPoint x="200" y="990" />
              <mxPoint x="250" y="940" />
            </Array>
          </mxGeometry>
        </mxCell>
        <mxCell id="dLtlnDuoxPDzDrTVFARZ-7" value="AWS / Azure /&lt;br&gt;GCP (firebase) /&lt;br&gt;NCP /&lt;br&gt;cafe24, gabia (도메인)&lt;br&gt;여러 cloud 업체가 있다&lt;br&gt;&lt;br&gt;그런데 aws가 업계 1위다 (대략 5~60% 정도)&lt;br&gt;회사를 가면 aws를 쓸 확률이 제일 높다&lt;br&gt;&lt;br&gt;나는 aws기준으로 말할거다" style="text;html=1;strokeColor=none;fillColor=none;align=center;verticalAlign=middle;whiteSpace=wrap;rounded=0;" vertex="1" parent="1">
          <mxGeometry x="470" y="710" width="260" height="150" as="geometry" />
        </mxCell>
        <mxCell id="dLtlnDuoxPDzDrTVFARZ-8" value="실제 서버를 돌리는 컴퓨터 EC2" style="rounded=0;whiteSpace=wrap;html=1;" vertex="1" parent="1">
          <mxGeometry x="560" y="1030" width="160" height="30" as="geometry" />
        </mxCell>
        <mxCell id="dLtlnDuoxPDzDrTVFARZ-9" value="도메인 발급 route53" style="rounded=0;whiteSpace=wrap;html=1;" vertex="1" parent="1">
          <mxGeometry x="657" y="940" width="170" height="20" as="geometry" />
        </mxCell>
        <mxCell id="dLtlnDuoxPDzDrTVFARZ-10" value="HTTPS certification manager" style="rounded=0;whiteSpace=wrap;html=1;" vertex="1" parent="1">
          <mxGeometry x="680" y="980" width="160" height="20" as="geometry" />
        </mxCell>
        <mxCell id="dLtlnDuoxPDzDrTVFARZ-11" value="클라이언트" style="rounded=0;whiteSpace=wrap;html=1;" vertex="1" parent="1">
          <mxGeometry x="580" y="1120" width="120" height="20" as="geometry" />
        </mxCell>
        <mxCell id="dLtlnDuoxPDzDrTVFARZ-12" value="도커는 뭐냐?&lt;br&gt;운영체제가 독립적으로 깔려있으나 하드웨어는 공유가 된 다른 컴퓨터임 (일종의 VM)" style="rounded=0;whiteSpace=wrap;html=1;" vertex="1" parent="1">
          <mxGeometry x="1121" y="510" width="279" height="90" as="geometry" />
        </mxCell>
        <mxCell id="dLtlnDuoxPDzDrTVFARZ-14" value="ECS&lt;br&gt;Elastic Container Service&lt;br&gt;도커를 아마존에 있는 임의의 컴퓨터에 내가 원하는 사양대로 띄워주는 서비스" style="rounded=0;whiteSpace=wrap;html=1;" vertex="1" parent="1">
          <mxGeometry x="850" y="660" width="540" height="50" as="geometry" />
        </mxCell>
        <mxCell id="dLtlnDuoxPDzDrTVFARZ-17" style="edgeStyle=orthogonalEdgeStyle;rounded=0;orthogonalLoop=1;jettySize=auto;html=1;entryX=1;entryY=0.5;entryDx=0;entryDy=0;" edge="1" parent="1" source="dLtlnDuoxPDzDrTVFARZ-15" target="dLtlnDuoxPDzDrTVFARZ-16">
          <mxGeometry relative="1" as="geometry" />
        </mxCell>
        <mxCell id="dLtlnDuoxPDzDrTVFARZ-15" value="ECR&lt;br&gt;Elastic Conatiner Registry&lt;br&gt;내 도커파일 저장해주는 저장소" style="rounded=0;whiteSpace=wrap;html=1;" vertex="1" parent="1">
          <mxGeometry x="1590" y="640" width="220" height="90" as="geometry" />
        </mxCell>
        <mxCell id="dLtlnDuoxPDzDrTVFARZ-16" value="Task Definition&lt;br&gt;CPU는 몇개고&lt;br&gt;RAM은 얼마고&lt;br&gt;이미지는 뭘 쓰고&lt;br&gt;포트는 어디를 열고..." style="rounded=0;whiteSpace=wrap;html=1;" vertex="1" parent="1">
          <mxGeometry x="1450" y="625" width="120" height="120" as="geometry" />
        </mxCell>
        <mxCell id="dLtlnDuoxPDzDrTVFARZ-28" style="edgeStyle=orthogonalEdgeStyle;rounded=0;orthogonalLoop=1;jettySize=auto;html=1;" edge="1" parent="1" source="dLtlnDuoxPDzDrTVFARZ-18" target="dLtlnDuoxPDzDrTVFARZ-27">
          <mxGeometry relative="1" as="geometry" />
        </mxCell>
        <mxCell id="dLtlnDuoxPDzDrTVFARZ-18" value="Service&lt;br&gt;Task의 묶음 (예: backend-dev)&lt;br&gt;&lt;br&gt;&lt;br&gt;&lt;br&gt;&lt;br&gt;&lt;br&gt;&lt;br&gt;&lt;br&gt;" style="rounded=0;whiteSpace=wrap;html=1;" vertex="1" parent="1">
          <mxGeometry x="1090" y="750" width="290" height="170" as="geometry" />
        </mxCell>
        <mxCell id="dLtlnDuoxPDzDrTVFARZ-19" value="Task&lt;br&gt;Task Definition은 그냥 이미지를 어떻게 실행할건지 정의만 해놓은거고, 실제 그 정의대로 실행되고 있는 목록" style="rounded=0;whiteSpace=wrap;html=1;" vertex="1" parent="1">
          <mxGeometry x="1100" y="800" width="120" height="110" as="geometry" />
        </mxCell>
        <mxCell id="dLtlnDuoxPDzDrTVFARZ-20" value="Task2&lt;br&gt;Task가 여러개인 이유는 서비스에 트래픽이 몰리면 서버를 더 띄워야 하니까" style="rounded=0;whiteSpace=wrap;html=1;" vertex="1" parent="1">
          <mxGeometry x="1241" y="800" width="120" height="110" as="geometry" />
        </mxCell>
        <mxCell id="dLtlnDuoxPDzDrTVFARZ-23" style="edgeStyle=orthogonalEdgeStyle;rounded=0;orthogonalLoop=1;jettySize=auto;html=1;entryX=0.5;entryY=1;entryDx=0;entryDy=0;exitX=0;exitY=0.5;exitDx=0;exitDy=0;" edge="1" parent="1" source="dLtlnDuoxPDzDrTVFARZ-16" target="dLtlnDuoxPDzDrTVFARZ-19">
          <mxGeometry relative="1" as="geometry">
            <mxPoint x="1460" y="695" as="sourcePoint" />
            <mxPoint x="1311" y="920" as="targetPoint" />
            <Array as="points">
              <mxPoint x="1410" y="685" />
              <mxPoint x="1410" y="930" />
              <mxPoint x="1160" y="930" />
            </Array>
          </mxGeometry>
        </mxCell>
        <mxCell id="dLtlnDuoxPDzDrTVFARZ-22" style="edgeStyle=orthogonalEdgeStyle;rounded=0;orthogonalLoop=1;jettySize=auto;html=1;entryX=0.5;entryY=1;entryDx=0;entryDy=0;" edge="1" parent="1" source="dLtlnDuoxPDzDrTVFARZ-16" target="dLtlnDuoxPDzDrTVFARZ-20">
          <mxGeometry relative="1" as="geometry" />
        </mxCell>
        <mxCell id="dLtlnDuoxPDzDrTVFARZ-25" value="다른 서비스 (예: frontend-dev)" style="rounded=0;whiteSpace=wrap;html=1;" vertex="1" parent="1">
          <mxGeometry x="860" y="750" width="220" height="170" as="geometry" />
        </mxCell>
        <mxCell id="dLtlnDuoxPDzDrTVFARZ-27" value="target group (ip)&lt;br&gt;VPC (공유기 안) IP를 service에 묶어준다" style="rounded=0;whiteSpace=wrap;html=1;" vertex="1" parent="1">
          <mxGeometry x="930" y="1015" width="350" height="60" as="geometry" />
        </mxCell>
        <mxCell id="dLtlnDuoxPDzDrTVFARZ-30" value="target group (ip)&lt;br&gt;VPC (공유기 안) IP를 service에 묶어준다" style="rounded=0;whiteSpace=wrap;html=1;" vertex="1" parent="1">
          <mxGeometry x="930" y="1075" width="350" height="60" as="geometry" />
        </mxCell>
        <mxCell id="dLtlnDuoxPDzDrTVFARZ-32" style="edgeStyle=orthogonalEdgeStyle;rounded=0;orthogonalLoop=1;jettySize=auto;html=1;entryX=1;entryY=0.5;entryDx=0;entryDy=0;" edge="1" parent="1" source="dLtlnDuoxPDzDrTVFARZ-31" target="dLtlnDuoxPDzDrTVFARZ-29">
          <mxGeometry relative="1" as="geometry" />
        </mxCell>
        <mxCell id="dLtlnDuoxPDzDrTVFARZ-31" value="route53&lt;br&gt;도메인 관리/DNS 등록까지" style="rounded=0;whiteSpace=wrap;html=1;" vertex="1" parent="1">
          <mxGeometry x="1770" y="775" width="480" height="120" as="geometry" />
        </mxCell>
        <mxCell id="dLtlnDuoxPDzDrTVFARZ-34" style="edgeStyle=orthogonalEdgeStyle;rounded=0;orthogonalLoop=1;jettySize=auto;html=1;entryX=0;entryY=0.5;entryDx=0;entryDy=0;" edge="1" parent="1" source="dLtlnDuoxPDzDrTVFARZ-33" target="dLtlnDuoxPDzDrTVFARZ-25">
          <mxGeometry relative="1" as="geometry" />
        </mxCell>
        <mxCell id="dLtlnDuoxPDzDrTVFARZ-33" value="이미지같이 그냥 정적인 파일들은 보통 s3 (simple storage service) 에서 관리" style="rounded=0;whiteSpace=wrap;html=1;" vertex="1" parent="1">
          <mxGeometry x="827" y="500" width="180" height="60" as="geometry" />
        </mxCell>
        <mxCell id="dLtlnDuoxPDzDrTVFARZ-36" style="edgeStyle=orthogonalEdgeStyle;rounded=0;orthogonalLoop=1;jettySize=auto;html=1;" edge="1" parent="1" source="dLtlnDuoxPDzDrTVFARZ-35" target="dLtlnDuoxPDzDrTVFARZ-15">
          <mxGeometry relative="1" as="geometry" />
        </mxCell>
        <mxCell id="dLtlnDuoxPDzDrTVFARZ-35" value="System Manager&lt;br&gt;에서 secret 값 설정해주는 게 있음" style="rounded=0;whiteSpace=wrap;html=1;" vertex="1" parent="1">
          <mxGeometry x="1480" y="460" width="220" height="60" as="geometry" />
        </mxCell>
        <mxCell id="dLtlnDuoxPDzDrTVFARZ-37" value="CDN이 여기 사이 들어갈 수도 있음 (CloudFront) 얘 장점은 캐싱이 되고, 또 인증서를 알아서 잘 해줘서 편함" style="rounded=0;whiteSpace=wrap;html=1;" vertex="1" parent="1">
          <mxGeometry x="1240" y="960" width="340" height="35" as="geometry" />
        </mxCell>
        <mxCell id="dLtlnDuoxPDzDrTVFARZ-38" value="기본적으로는 에러 확인을 CloudWatch 라는 애를 써서 확인한다. 여기 적히는 로그는 S3에 저장이 된다. 근데 디버깅할려면 보통 여기서 봄" style="rounded=0;whiteSpace=wrap;html=1;" vertex="1" parent="1">
          <mxGeometry x="1420" y="820" width="240" height="90" as="geometry" />
        </mxCell>
        <mxCell id="dLtlnDuoxPDzDrTVFARZ-39" value="VPC - 얘는 공유기 같은 것" style="rounded=0;whiteSpace=wrap;html=1;" vertex="1" parent="1">
          <mxGeometry x="1070" y="400" width="200" height="60" as="geometry" />
        </mxCell>
        <mxCell id="dLtlnDuoxPDzDrTVFARZ-41" style="edgeStyle=orthogonalEdgeStyle;rounded=0;orthogonalLoop=1;jettySize=auto;html=1;entryX=0;entryY=0.75;entryDx=0;entryDy=0;" edge="1" parent="1" source="dLtlnDuoxPDzDrTVFARZ-40" target="dLtlnDuoxPDzDrTVFARZ-25">
          <mxGeometry relative="1" as="geometry" />
        </mxCell>
        <mxCell id="dLtlnDuoxPDzDrTVFARZ-42" style="edgeStyle=orthogonalEdgeStyle;rounded=0;orthogonalLoop=1;jettySize=auto;html=1;entryX=0.904;entryY=-0.017;entryDx=0;entryDy=0;entryPerimeter=0;" edge="1" parent="1" source="dLtlnDuoxPDzDrTVFARZ-40" target="dLtlnDuoxPDzDrTVFARZ-18">
          <mxGeometry relative="1" as="geometry">
            <Array as="points">
              <mxPoint x="717" y="630" />
              <mxPoint x="1352" y="630" />
            </Array>
          </mxGeometry>
        </mxCell>
        <mxCell id="dLtlnDuoxPDzDrTVFARZ-40" value="RDS&lt;br&gt;기본적으로 그냥 DB만 켜져있는 컴퓨터임" style="rounded=0;whiteSpace=wrap;html=1;" vertex="1" parent="1">
          <mxGeometry x="657" y="565" width="120" height="60" as="geometry" />
        </mxCell>
      </root>
    </mxGraphModel>
  </diagram>
</mxfile>
